<svg xmlns="http://www.w3.org/2000/svg" xmlns:xlink="http://www.w3.org/1999/xlink" width="500" zoomAndPan="magnify" viewBox="0 0 375 374.999991" height="500" preserveAspectRatio="xMidYMid meet" version="1.0"><defs><g/><clipPath id="4dcc2d5b46"><path d="M 10.535156 57.023438 L 366.785156 57.023438 L 366.785156 311.273438 L 10.535156 311.273438 Z M 10.535156 57.023438 " clip-rule="nonzero"/></clipPath></defs><rect x="-37.5" width="450" fill="#ffffff" y="-37.499999" height="449.999989" fill-opacity="1"/><rect x="-37.5" width="450" fill="#ffffff" y="-37.499999" height="449.999989" fill-opacity="1"/><path fill="#ffffff" d="M 289.1875 63.085938 L 89.742188 63.085938 C 50.378906 63.085938 18.355469 95.105469 18.355469 134.472656 L 18.355469 198.3125 C 18.355469 237.675781 50.378906 269.703125 89.742188 269.703125 L 117.277344 269.703125 C 119.722656 269.703125 122.039062 270.769531 123.632812 272.625 C 125.226562 274.480469 125.925781 276.933594 125.554688 279.351562 L 122.59375 298.554688 L 156.429688 271.53125 C 157.910156 270.351562 159.769531 269.703125 161.65625 269.703125 L 289.183594 269.703125 C 328.542969 269.703125 360.570312 237.679688 360.570312 198.3125 L 360.570312 134.472656 C 360.570312 95.109375 328.546875 63.085938 289.183594 63.085938 Z M 289.1875 63.085938 " fill-opacity="1" fill-rule="nonzero"/><g clip-path="url(#4dcc2d5b46)"><path fill="#483e5d" d="M 288.515625 57.066406 L 89.070312 57.066406 C 45.769531 57.066406 10.535156 92.300781 10.535156 135.605469 L 10.535156 199.445312 C 10.535156 242.753906 45.769531 277.984375 89.070312 277.984375 L 116.609375 277.984375 C 117.070312 277.984375 117.367188 278.214844 117.539062 278.414062 C 117.707031 278.605469 117.890625 278.933594 117.820312 279.394531 L 113.632812 306.558594 C 113.382812 308.199219 114.148438 309.800781 115.589844 310.632812 C 116.199219 310.988281 116.894531 311.171875 117.597656 311.171875 C 118.5 311.171875 119.390625 310.863281 120.097656 310.296875 L 160.230469 278.246094 C 160.445312 278.074219 160.714844 277.980469 160.992188 277.980469 L 288.515625 277.980469 C 331.824219 277.980469 367.058594 242.746094 367.058594 199.445312 L 367.058594 135.601562 C 367.054688 92.300781 331.824219 57.066406 288.515625 57.066406 Z M 125.738281 280.613281 C 126.152344 277.945312 125.378906 275.238281 123.621094 273.191406 C 121.863281 271.144531 119.308594 269.96875 116.609375 269.96875 L 89.070312 269.96875 C 50.183594 269.96875 18.546875 238.328125 18.546875 199.445312 L 18.546875 135.601562 C 18.546875 96.714844 50.183594 65.078125 89.070312 65.078125 L 288.515625 65.078125 C 327.402344 65.078125 359.039062 96.714844 359.039062 135.601562 L 359.039062 199.445312 C 359.039062 238.328125 327.402344 269.96875 288.515625 269.96875 L 160.992188 269.96875 C 158.90625 269.96875 156.859375 270.683594 155.226562 271.988281 L 123.121094 297.625 L 125.742188 280.609375 Z M 125.738281 280.613281 " fill-opacity="1" fill-rule="nonzero"/></g><g fill="#483e5d" fill-opacity="1"><g transform="translate(66.797292, 233.234698)"><g><path d="M 22.71875 -146.796875 L 42.109375 -146.796875 L 28.8125 -46.8125 C 27.332031 -35.726562 29.175781 -27.554688 34.34375 -22.296875 C 39.519531 -17.035156 47.273438 -14.40625 57.609375 -14.40625 C 64.816406 -14.40625 71.140625 -15.648438 76.578125 -18.140625 C 82.023438 -20.628906 86.6875 -23.675781 90.5625 -27.28125 C 94.445312 -30.882812 97.5 -34.253906 99.71875 -37.390625 L 114.125 -146.796875 L 133.5 -146.796875 L 119.375 -39.890625 L 115.78125 0 L 99.15625 0 L 99.15625 -20.5 C 93.988281 -13.476562 87.34375 -7.796875 79.21875 -3.453125 C 71.09375 0.878906 61.675781 3.046875 50.96875 3.046875 C 35.082031 3.046875 23.675781 -1.335938 16.75 -10.109375 C 9.832031 -18.878906 7.296875 -30.191406 9.140625 -44.046875 Z M 22.71875 -146.796875 "/></g></g></g><g fill="#ff5757" fill-opacity="1"><g transform="translate(213.097155, 239.921478)"><g><path d="M 56.234375 -38.015625 L 72.0625 -38.015625 C 69.957031 -24.285156 66.296875 -14.515625 61.078125 -8.703125 C 55.867188 -2.898438 48.507812 0 39 0 C 30.15625 0 23.125 -2.539062 17.90625 -7.625 C 12.695312 -12.707031 8.96875 -21.085938 6.71875 -32.765625 C 4.476562 -44.441406 3.359375 -60.179688 3.359375 -79.984375 C 3.359375 -99.785156 4.476562 -115.394531 6.71875 -126.8125 C 8.96875 -138.226562 12.695312 -146.34375 17.90625 -151.15625 C 23.125 -155.976562 30.15625 -158.390625 39 -158.390625 C 48.632812 -158.390625 56.054688 -155.550781 61.265625 -149.875 C 66.484375 -144.195312 70.148438 -134.363281 72.265625 -120.375 L 56.234375 -120.375 C 55.171875 -127.5 53.316406 -132.910156 50.671875 -136.609375 C 48.035156 -140.304688 44.144531 -142.15625 39 -142.15625 C 33.0625 -142.15625 28.738281 -139.742188 26.03125 -134.921875 C 23.320312 -130.109375 21.570312 -123.082031 20.78125 -113.84375 C 19.988281 -104.601562 19.59375 -93.316406 19.59375 -79.984375 C 19.59375 -66.648438 19.988281 -55.234375 20.78125 -45.734375 C 21.570312 -36.234375 23.320312 -28.941406 26.03125 -23.859375 C 28.738281 -18.773438 33.0625 -16.234375 39 -16.234375 C 44.019531 -16.234375 47.847656 -18.113281 50.484375 -21.875 C 53.128906 -25.632812 55.046875 -31.015625 56.234375 -38.015625 Z M 56.234375 -38.015625 "/></g></g></g></svg>